<?xml version="1.0" encoding="utf-8" ?>
<svg baseProfile="full" height="32px" version="1.1" width="32px" xmlns="http://www.w3.org/2000/svg" xmlns:ev="http://www.w3.org/2001/xml-events" xmlns:xlink="http://www.w3.org/1999/xlink"><defs /><rect fill="black" height="1" width="1" x="25" y="17" /><rect fill="black" height="1" width="1" x="26" y="17" /><rect fill="black" height="1" width="1" x="25" y="18" /><rect fill="black" height="1" width="1" x="26" y="18" /><rect fill="black" height="1" width="1" x="25" y="19" /><rect fill="black" height="1" width="1" x="26" y="19" /><rect fill="black" height="1" width="1" x="24" y="20" /><rect fill="black" height="1" width="1" x="25" y="20" /><rect fill="black" height="1" width="1" x="26" y="20" /><rect fill="black" height="1" width="1" x="21" y="21" /><rect fill="black" height="1" width="1" x="22" y="21" /><rect fill="black" height="1" width="1" x="23" y="21" /><rect fill="black" height="1" width="1" x="24" y="21" /><rect fill="black" height="1" width="1" x="25" y="21" /><rect fill="black" height="1" width="1" x="26" y="21" /><rect fill="black" height="1" width="1" x="21" y="22" /><rect fill="black" height="1" width="1" x="22" y="22" /><rect fill="black" height="1" width="1" x="23" y="22" /><rect fill="black" height="1" width="1" x="24" y="22" /><rect fill="black" height="1" width="1" x="25" y="22" /><rect fill="black" height="1" width="1" x="26" y="22" /><rect fill="black" height="1" width="1" x="21" y="23" /><rect fill="black" height="1" width="1" x="22" y="23" /><rect fill="black" height="1" width="1" x="23" y="23" /><rect fill="black" height="1" width="1" x="24" y="23" /><rect fill="black" height="1" width="1" x="25" y="23" /><rect fill="black" height="1" width="1" x="26" y="23" /><rect fill="black" height="1" width="1" x="21" y="24" /><rect fill="black" height="1" width="1" x="22" y="24" /><rect fill="black" height="1" width="1" x="23" y="24" /><rect fill="black" height="1" width="1" x="24" y="24" /><rect fill="black" height="1" width="1" x="25" y="24" /><rect fill="black" height="1" width="1" x="26" y="24" /><rect fill="black" height="1" width="1" x="18" y="25" /><rect fill="black" height="1" width="1" x="19" y="25" /><rect fill="black" height="1" width="1" x="20" y="25" /><rect fill="black" height="1" width="1" x="21" y="25" /><rect fill="black" height="1" width="1" x="22" y="25" /><rect fill="black" height="1" width="1" x="23" y="25" /><rect fill="black" height="1" width="1" x="24" y="25" /><rect fill="black" height="1" width="1" x="25" y="25" /><rect fill="black" height="1" width="1" x="26" y="25" /><rect fill="black" height="1" width="1" x="18" y="26" /><rect fill="black" height="1" width="1" x="19" y="26" /><rect fill="black" height="1" width="1" x="20" y="26" /><rect fill="black" height="1" width="1" x="21" y="26" /><rect fill="black" height="1" width="1" x="22" y="26" /><rect fill="black" height="1" width="1" x="23" y="26" /><rect fill="black" height="1" width="1" x="24" y="26" /><rect fill="black" height="1" width="1" x="25" y="26" /><rect fill="black" height="1" width="1" x="26" y="26" /></svg>